<svg width="60" height="44" viewBox="0 0 60 44" fill="none" xmlns="http://www.w3.org/2000/svg">
<path d="M3.444 29.2V39H2.436V30.096H0.126V29.2H3.444ZM17.2207 34.1H18.2147V37.838C17.7573 38.2393 17.216 38.5473 16.5907 38.762C15.9653 38.9767 15.3073 39.084 14.6167 39.084C13.6367 39.084 12.7547 38.8693 11.9707 38.44C11.1867 38.0107 10.5707 37.418 10.1227 36.662C9.67466 35.8967 9.45066 35.0427 9.45066 34.1C9.45066 33.1573 9.67466 32.308 10.1227 31.552C10.5707 30.7867 11.1867 30.1893 11.9707 29.76C12.7547 29.3307 13.6413 29.116 14.6307 29.116C15.3773 29.116 16.0633 29.2373 16.6887 29.48C17.314 29.7133 17.8413 30.0633 18.2707 30.53L17.6267 31.188C16.852 30.4227 15.8673 30.04 14.6727 30.04C13.8793 30.04 13.1607 30.2173 12.5167 30.572C11.882 30.9173 11.3827 31.4027 11.0187 32.028C10.6547 32.644 10.4727 33.3347 10.4727 34.1C10.4727 34.8653 10.6547 35.556 11.0187 36.172C11.3827 36.788 11.882 37.2733 12.5167 37.628C13.1513 37.9827 13.8653 38.16 14.6587 38.16C15.6667 38.16 16.5207 37.908 17.2207 37.404V34.1ZM23.5128 31.58C24.4741 31.58 25.2114 31.8227 25.7248 32.308C26.2381 32.784 26.4948 33.4933 26.4948 34.436V39H25.5428V37.852C25.3188 38.2347 24.9874 38.5333 24.5488 38.748C24.1194 38.9627 23.6061 39.07 23.0088 39.07C22.1874 39.07 21.5341 38.874 21.0488 38.482C20.5634 38.09 20.3208 37.572 20.3208 36.928C20.3208 36.3027 20.5448 35.7987 20.9928 35.416C21.4501 35.0333 22.1734 34.842 23.1628 34.842H25.5008V34.394C25.5008 33.7593 25.3234 33.2787 24.9688 32.952C24.6141 32.616 24.0961 32.448 23.4148 32.448C22.9481 32.448 22.5001 32.5273 22.0708 32.686C21.6414 32.8353 21.2728 33.0453 20.9648 33.316L20.5168 32.574C20.8901 32.2567 21.3381 32.014 21.8608 31.846C22.3834 31.6687 22.9341 31.58 23.5128 31.58ZM23.1628 38.286C23.7228 38.286 24.2034 38.16 24.6048 37.908C25.0061 37.6467 25.3048 37.2733 25.5008 36.788V35.584H23.1908C21.9308 35.584 21.3008 36.0227 21.3008 36.9C21.3008 37.3293 21.4641 37.67 21.7908 37.922C22.1174 38.1647 22.5748 38.286 23.1628 38.286ZM30.1466 33.078C30.3799 32.5833 30.7253 32.21 31.1826 31.958C31.6493 31.706 32.2233 31.58 32.9046 31.58V32.546L32.6666 32.532C31.8919 32.532 31.2853 32.77 30.8466 33.246C30.4079 33.722 30.1886 34.3893 30.1886 35.248V39H29.1946V31.636H30.1466V33.078ZM37.2667 31.58C38.228 31.58 38.9654 31.8227 39.4787 32.308C39.992 32.784 40.2487 33.4933 40.2487 34.436V39H39.2967V37.852C39.0727 38.2347 38.7414 38.5333 38.3027 38.748C37.8734 38.9627 37.36 39.07 36.7627 39.07C35.9414 39.07 35.288 38.874 34.8027 38.482C34.3174 38.09 34.0747 37.572 34.0747 36.928C34.0747 36.3027 34.2987 35.7987 34.7467 35.416C35.204 35.0333 35.9274 34.842 36.9167 34.842H39.2547V34.394C39.2547 33.7593 39.0774 33.2787 38.7227 32.952C38.368 32.616 37.85 32.448 37.1687 32.448C36.702 32.448 36.254 32.5273 35.8247 32.686C35.3954 32.8353 35.0267 33.0453 34.7187 33.316L34.2707 32.574C34.644 32.2567 35.092 32.014 35.6147 31.846C36.1374 31.6687 36.688 31.58 37.2667 31.58ZM36.9167 38.286C37.4767 38.286 37.9574 38.16 38.3587 37.908C38.76 37.6467 39.0587 37.2733 39.2547 36.788V35.584H36.9447C35.6847 35.584 35.0547 36.0227 35.0547 36.9C35.0547 37.3293 35.218 37.67 35.5447 37.922C35.8714 38.1647 36.3287 38.286 36.9167 38.286ZM49.7938 31.636V38.104C49.7938 39.3547 49.4858 40.2787 48.8698 40.876C48.2632 41.4827 47.3438 41.786 46.1118 41.786C45.4305 41.786 44.7818 41.6833 44.1658 41.478C43.5592 41.282 43.0645 41.0067 42.6818 40.652L43.1858 39.896C43.5405 40.2133 43.9698 40.4607 44.4738 40.638C44.9872 40.8153 45.5238 40.904 46.0838 40.904C47.0172 40.904 47.7032 40.6847 48.1418 40.246C48.5805 39.8167 48.7998 39.1447 48.7998 38.23V37.292C48.4918 37.7587 48.0858 38.1133 47.5818 38.356C47.0872 38.5987 46.5365 38.72 45.9298 38.72C45.2392 38.72 44.6092 38.5707 44.0398 38.272C43.4798 37.964 43.0365 37.5393 42.7098 36.998C42.3925 36.4473 42.2338 35.8267 42.2338 35.136C42.2338 34.4453 42.3925 33.8293 42.7098 33.288C43.0365 32.7467 43.4798 32.3267 44.0398 32.028C44.5998 31.7293 45.2298 31.58 45.9298 31.58C46.5552 31.58 47.1198 31.706 47.6238 31.958C48.1278 32.21 48.5338 32.574 48.8418 33.05V31.636H49.7938ZM46.0278 37.838C46.5598 37.838 47.0405 37.726 47.4698 37.502C47.8992 37.2687 48.2305 36.9467 48.4638 36.536C48.7065 36.1253 48.8278 35.6587 48.8278 35.136C48.8278 34.6133 48.7065 34.1513 48.4638 33.75C48.2305 33.3393 47.8992 33.022 47.4698 32.798C47.0498 32.5647 46.5692 32.448 46.0278 32.448C45.4958 32.448 45.0152 32.56 44.5858 32.784C44.1658 33.008 43.8345 33.3253 43.5918 33.736C43.3585 34.1467 43.2418 34.6133 43.2418 35.136C43.2418 35.6587 43.3585 36.1253 43.5918 36.536C43.8345 36.9467 44.1658 37.2687 44.5858 37.502C45.0152 37.726 45.4958 37.838 46.0278 37.838ZM58.9855 35.626H52.8255C52.8815 36.3913 53.1755 37.012 53.7075 37.488C54.2395 37.9547 54.9115 38.188 55.7235 38.188C56.1808 38.188 56.6008 38.1087 56.9835 37.95C57.3662 37.782 57.6975 37.5393 57.9775 37.222L58.5375 37.866C58.2108 38.258 57.8002 38.5567 57.3055 38.762C56.8202 38.9673 56.2835 39.07 55.6955 39.07C54.9395 39.07 54.2675 38.9113 53.6795 38.594C53.1008 38.2673 52.6482 37.8193 52.3215 37.25C51.9948 36.6807 51.8315 36.0367 51.8315 35.318C51.8315 34.5993 51.9855 33.9553 52.2935 33.386C52.6108 32.8167 53.0402 32.3733 53.5815 32.056C54.1322 31.7387 54.7482 31.58 55.4295 31.58C56.1108 31.58 56.7222 31.7387 57.2635 32.056C57.8048 32.3733 58.2295 32.8167 58.5375 33.386C58.8455 33.946 58.9995 34.59 58.9995 35.318L58.9855 35.626ZM55.4295 32.434C54.7202 32.434 54.1228 32.6627 53.6375 33.12C53.1615 33.568 52.8908 34.156 52.8255 34.884H58.0475C57.9822 34.156 57.7068 33.568 57.2215 33.12C56.7455 32.6627 56.1482 32.434 55.4295 32.434Z" fill="#696969"/>
<path d="M39.2733 7.61208L38.8592 7.17362L37.4058 3.25588C37.1581 2.59413 36.5248 2.15567 35.8184 2.15161H25.4374C24.731 2.15161 24.0976 2.59413 23.85 3.25588L22.4169 7.1249L21.8201 7.67704C21.3004 8.11956 21 8.76913 21 9.45118V15.1593C21.0041 16.0931 21.7632 16.8482 22.697 16.8482H23.7688C24.7026 16.8482 25.4618 16.0931 25.4658 15.1593V14.3311H35.5342V15.1593C35.5382 16.0931 36.2974 16.8482 37.2312 16.8482H38.303C39.2368 16.8482 39.9959 16.0931 40 15.1593V9.30097C39.9959 8.66358 39.7361 8.0546 39.2733 7.61208ZM24.6132 3.53195C24.7432 3.18687 25.072 2.96358 25.4374 2.96358H35.8224C36.1878 2.96358 36.5167 3.19093 36.6466 3.53195L37.9132 6.94221H36.9673C36.744 5.41977 35.3271 4.36828 33.8047 4.59563C32.5908 4.77426 31.6368 5.72832 31.4581 6.94221H23.3466L24.6132 3.53195ZM36.1391 6.94221H32.2782C32.5015 5.87447 33.5489 5.19242 34.6167 5.41571C35.3799 5.57811 35.9767 6.1749 36.1391 6.94221ZM24.6538 15.1593C24.6498 15.6465 24.256 16.0362 23.7688 16.0362H22.697C22.2098 16.0362 21.816 15.6465 21.812 15.1593V14.0956C22.0556 14.254 22.3763 14.3311 22.697 14.3311H24.6538V15.1593ZM39.188 15.1593C39.184 15.6465 38.7902 16.0362 38.303 16.0362H37.2312C36.744 16.0362 36.3502 15.6424 36.3462 15.1593V14.3311H38.303C38.6237 14.3311 38.9444 14.254 39.188 14.0956V15.1593ZM38.303 13.5191H22.697C22.2139 13.5232 21.816 13.1375 21.812 12.6503V9.45118C21.812 9.0046 22.0109 8.57832 22.3519 8.29007C22.356 8.28601 22.3641 8.27789 22.3682 8.27383L22.9203 7.75418H38.2949L38.6846 8.17234C38.6887 8.18046 38.7009 8.18452 38.7049 8.19264C39.0094 8.48088 39.184 8.88281 39.184 9.30097V12.6503H39.188C39.184 13.1334 38.7861 13.5232 38.303 13.5191Z" fill="#696969"/>
<path d="M26.3591 9.37817H23.3142C23.0909 9.37817 22.9082 9.56087 22.9082 9.78416V11.8953C22.9082 12.1186 23.0909 12.3013 23.3142 12.3013H26.3591C26.5823 12.3013 26.765 12.1186 26.765 11.8953V9.78416C26.765 9.56087 26.5823 9.37817 26.3591 9.37817ZM25.9531 11.4893H23.7202V10.1901H25.9531V11.4893Z" fill="#696969"/>
<path d="M37.6857 9.37817H34.6408C34.4176 9.37817 34.2349 9.56087 34.2349 9.78416V11.8953C34.2349 12.1186 34.4176 12.3013 34.6408 12.3013H37.6857C37.909 12.3013 38.0917 12.1186 38.0917 11.8953V9.78416C38.0917 9.56087 37.909 9.37817 37.6857 9.37817ZM37.2797 11.4893H35.0468V10.1901H37.2797V11.4893Z" fill="#696969"/>
<path d="M32.4611 11.0833H28.5393C28.316 11.0833 28.1333 11.2659 28.1333 11.4892C28.1333 11.7125 28.316 11.8952 28.5393 11.8952H32.4611C32.6844 11.8952 32.8671 11.7125 32.8671 11.4892C32.8671 11.2659 32.6844 11.0833 32.4611 11.0833Z" fill="#696969"/>
<path d="M32.4611 9.82471H28.5393C28.316 9.82471 28.1333 10.0074 28.1333 10.2307C28.1333 10.454 28.316 10.6367 28.5393 10.6367H32.4611C32.6844 10.6367 32.8671 10.454 32.8671 10.2307C32.8671 10.0074 32.6844 9.82471 32.4611 9.82471Z" fill="#696969"/>
</svg>
