<svg width="70" height="35" viewBox="0 0 70 35" fill="none" xmlns="http://www.w3.org/2000/svg">
<rect x="35" width="35" height="35" rx="17.5" fill="#F6F8F9"/>
<path d="M58.7574 12.3654C57.1262 10.8131 54.4711 10.8131 52.8393 12.3651L52.5 12.6873L52.1611 12.3652C50.5292 10.8131 47.8744 10.8133 46.2425 12.3652C45.4412 13.1273 45 14.1382 45 15.2114C45 16.2849 45.4412 17.2956 46.2426 18.058L52.1377 23.6547C52.2391 23.7512 52.3697 23.7993 52.5 23.7993C52.6303 23.7993 52.7607 23.751 52.8623 23.6545L58.7574 18.058C59.5586 17.2958 60 16.2849 60 15.2115C60 14.1382 59.5586 13.1275 58.7574 12.3654ZM58.0321 17.2949L52.5 22.5472L46.9681 17.2951C46.3777 16.7337 46.0526 15.9937 46.0526 15.2115C46.0526 14.4294 46.3777 13.6894 46.9681 13.128C47.5839 12.5421 48.3926 12.2493 49.2016 12.2493C50.0107 12.2493 50.8198 12.5424 51.4356 13.1284L52.1374 13.7949C52.3405 13.9881 52.6593 13.9881 52.8625 13.7949L53.5644 13.128C54.7961 11.9563 56.8002 11.9563 58.0319 13.128C58.6221 13.6895 58.9474 14.4294 58.9474 15.2115C58.9474 15.9937 58.6221 16.7335 58.0321 17.2949Z" fill="#696969"/>
<g clip-path="url(#clip0_148_3375)">
<path d="M14.414 10H10.0843C9.76065 10 9.49833 10.2623 9.49833 10.5859C9.49833 10.9096 9.76065 11.1719 10.0843 11.1719H12.9994L8.30249 15.8688C8.07365 16.0976 8.07365 16.4686 8.30249 16.6974C8.5313 16.9262 8.90228 16.9263 9.13112 16.6974L13.8281 12.0005V14.9156C13.8281 15.2392 14.0904 15.5016 14.414 15.5016C14.7376 15.5016 14.9999 15.2392 14.9999 14.9156V10.5859C14.9999 10.267 14.7408 10 14.414 10Z" fill="#696969"/>
<path d="M6.69744 18.3026C6.4686 18.0738 6.09762 18.0738 5.86881 18.3026L1.17188 22.9995V20.0844C1.17188 19.7608 0.909551 19.4985 0.585938 19.4985C0.262324 19.4985 0 19.7608 0 20.0844V24.4141C0 24.7324 0.259365 25 0.585938 25H4.91566C5.23928 25 5.5016 24.7377 5.5016 24.4141C5.5016 24.0905 5.23928 23.8282 4.91566 23.8282H2.00051L6.69744 19.1312C6.92628 18.9024 6.92628 18.5314 6.69744 18.3026Z" fill="#696969"/>
</g>
<defs>
<clipPath id="clip0_148_3375">
<rect width="15" height="15" fill="white" transform="translate(0 10)"/>
</clipPath>
</defs>
</svg>
