<svg width="159" height="36" viewBox="0 0 159 36" fill="none" xmlns="http://www.w3.org/2000/svg">
<path d="M7.62891 19.3154L8.01172 16.7998H5.57812V15.1592C5.57812 14.4482 5.90625 13.792 7 13.792H8.12109V11.6318C8.12109 11.6318 7.10938 11.4404 6.15234 11.4404C4.15625 11.4404 2.84375 12.6709 2.84375 14.8584V16.7998H0.601562V19.3154H2.84375V25.4404H5.57812V19.3154H7.62891Z" fill="white"/>
<rect opacity="0.1" x="84" width="36" height="36" rx="3" fill="white"/>
<path d="M57.5508 15.5967C58.0977 15.1865 58.5898 14.6943 58.9727 14.1201C58.4805 14.3389 57.9062 14.5029 57.332 14.5576C57.9336 14.2021 58.3711 13.6553 58.5898 12.9717C58.043 13.2998 57.4141 13.5459 56.7852 13.6826C56.2383 13.1084 55.5 12.7803 54.6797 12.7803C53.0938 12.7803 51.8086 14.0654 51.8086 15.6514C51.8086 15.8701 51.8359 16.0889 51.8906 16.3076C49.5117 16.1709 47.3789 15.0225 45.957 13.2998C45.7109 13.71 45.5742 14.2021 45.5742 14.749C45.5742 15.7334 46.0664 16.6084 46.8594 17.1279C46.3945 17.1006 45.9297 16.9912 45.5469 16.7725V16.7998C45.5469 18.1943 46.5312 19.3428 47.8438 19.6162C47.625 19.6709 47.3516 19.7256 47.1055 19.7256C46.9141 19.7256 46.75 19.6982 46.5586 19.6709C46.9141 20.8193 47.9805 21.6396 49.2383 21.667C48.2539 22.4326 47.0234 22.8975 45.6836 22.8975C45.4375 22.8975 45.2188 22.8701 45 22.8428C46.2578 23.6631 47.7617 24.1279 49.4023 24.1279C54.6797 24.1279 57.5508 19.7803 57.5508 15.9795C57.5508 15.8428 57.5508 15.7334 57.5508 15.5967Z" fill="white"/>
<path d="M102.125 15.2959C100.375 15.2959 98.9805 16.7178 98.9805 18.4404C98.9805 20.1904 100.375 21.585 102.125 21.585C103.848 21.585 105.27 20.1904 105.27 18.4404C105.27 16.7178 103.848 15.2959 102.125 15.2959ZM102.125 20.4912C101.004 20.4912 100.074 19.5889 100.074 18.4404C100.074 17.3193 100.977 16.417 102.125 16.417C103.246 16.417 104.148 17.3193 104.148 18.4404C104.148 19.5889 103.246 20.4912 102.125 20.4912ZM106.117 15.1865C106.117 14.7764 105.789 14.4482 105.379 14.4482C104.969 14.4482 104.641 14.7764 104.641 15.1865C104.641 15.5967 104.969 15.9248 105.379 15.9248C105.789 15.9248 106.117 15.5967 106.117 15.1865ZM108.195 15.9248C108.141 14.9404 107.922 14.0654 107.211 13.3545C106.5 12.6436 105.625 12.4248 104.641 12.3701C103.629 12.3154 100.594 12.3154 99.582 12.3701C98.5977 12.4248 97.75 12.6436 97.0117 13.3545C96.3008 14.0654 96.082 14.9404 96.0273 15.9248C95.9727 16.9365 95.9727 19.9717 96.0273 20.9834C96.082 21.9678 96.3008 22.8154 97.0117 23.5537C97.75 24.2646 98.5977 24.4834 99.582 24.5381C100.594 24.5928 103.629 24.5928 104.641 24.5381C105.625 24.4834 106.5 24.2646 107.211 23.5537C107.922 22.8154 108.141 21.9678 108.195 20.9834C108.25 19.9717 108.25 16.9365 108.195 15.9248ZM106.883 22.0498C106.691 22.5967 106.254 23.0068 105.734 23.2256C104.914 23.5537 103 23.4717 102.125 23.4717C101.223 23.4717 99.3086 23.5537 98.5156 23.2256C97.9688 23.0068 97.5586 22.5967 97.3398 22.0498C97.0117 21.2568 97.0938 19.3428 97.0938 18.4404C97.0938 17.5654 97.0117 15.6514 97.3398 14.8311C97.5586 14.3115 97.9688 13.9014 98.5156 13.6826C99.3086 13.3545 101.223 13.4365 102.125 13.4365C103 13.4365 104.914 13.3545 105.734 13.6826C106.254 13.874 106.664 14.3115 106.883 14.8311C107.211 15.6514 107.129 17.5654 107.129 18.4404C107.129 19.3428 107.211 21.2568 106.883 22.0498Z" fill="white"/>
<path d="M148.734 23.6904V15.5146H146.191V23.6904H148.734ZM147.449 14.4209C148.27 14.4209 148.926 13.7373 148.926 12.917C148.926 12.124 148.27 11.4678 147.449 11.4678C146.656 11.4678 146 12.124 146 12.917C146 13.7373 146.656 14.4209 147.449 14.4209ZM158.223 23.6904H158.25V19.2061C158.25 17.0186 157.758 15.3232 155.188 15.3232C153.957 15.3232 153.137 16.0068 152.781 16.6357H152.754V15.5146H150.32V23.6904H152.863V19.6436C152.863 18.5771 153.055 17.5654 154.367 17.5654C155.68 17.5654 155.707 18.7686 155.707 19.7256V23.6904H158.223Z" fill="white"/>
</svg>
