<svg width="141" height="20" viewBox="0 0 141 20" fill="none" xmlns="http://www.w3.org/2000/svg">
<path d="M80.8158 16.328C80.3678 15.592 80.0238 14.748 79.7838 13.796C79.5438 12.836 79.4238 11.808 79.4238 10.712C79.4238 9.616 79.5438 8.588 79.7838 7.628C80.0238 6.66 80.3678 5.816 80.8158 5.096H81.6318C81.1598 5.904 80.8118 6.772 80.5878 7.7C80.3718 8.628 80.2638 9.632 80.2638 10.712C80.2638 11.792 80.3718 12.796 80.5878 13.724C80.8118 14.652 81.1598 15.52 81.6318 16.328H80.8158ZM84.957 9.044C86.173 9.044 87.057 9.264 87.609 9.704C88.169 10.136 88.449 10.744 88.449 11.528C88.449 12.016 88.333 12.452 88.101 12.836C87.877 13.22 87.537 13.524 87.081 13.748C86.625 13.964 86.065 14.072 85.401 14.072C84.801 14.072 84.229 13.976 83.685 13.784C83.149 13.584 82.717 13.32 82.389 12.992L82.809 12.308C83.089 12.596 83.457 12.832 83.913 13.016C84.369 13.192 84.861 13.28 85.389 13.28C86.085 13.28 86.621 13.124 86.997 12.812C87.381 12.5 87.573 12.084 87.573 11.564C87.573 10.988 87.357 10.552 86.925 10.256C86.501 9.96 85.781 9.812 84.765 9.812H82.977L83.409 5.6H88.005V6.368H84.165L83.877 9.044H84.957ZM94.0665 8.924C94.2665 8.5 94.5625 8.18 94.9545 7.964C95.3545 7.748 95.8465 7.64 96.4305 7.64V8.468L96.2265 8.456C95.5625 8.456 95.0425 8.66 94.6665 9.068C94.2905 9.476 94.1025 10.048 94.1025 10.784V14H93.2505V7.688H94.0665V8.924ZM103.411 11.108H98.1306C98.1786 11.764 98.4306 12.296 98.8866 12.704C99.3426 13.104 99.9186 13.304 100.615 13.304C101.007 13.304 101.367 13.236 101.695 13.1C102.023 12.956 102.307 12.748 102.547 12.476L103.027 13.028C102.747 13.364 102.395 13.62 101.971 13.796C101.555 13.972 101.095 14.06 100.591 14.06C99.9426 14.06 99.3666 13.924 98.8626 13.652C98.3666 13.372 97.9786 12.988 97.6986 12.5C97.4186 12.012 97.2786 11.46 97.2786 10.844C97.2786 10.228 97.4106 9.676 97.6746 9.188C97.9466 8.7 98.3146 8.32 98.7786 8.048C99.2506 7.776 99.7786 7.64 100.363 7.64C100.947 7.64 101.471 7.776 101.935 8.048C102.399 8.32 102.763 8.7 103.027 9.188C103.291 9.668 103.423 10.22 103.423 10.844L103.411 11.108ZM100.363 8.372C99.7546 8.372 99.2426 8.568 98.8266 8.96C98.4186 9.344 98.1866 9.848 98.1306 10.472H102.607C102.551 9.848 102.315 9.344 101.899 8.96C101.491 8.568 100.979 8.372 100.363 8.372ZM110.344 7.688L107.536 14H106.66L103.864 7.688H104.752L107.116 13.064L109.504 7.688H110.344ZM111.543 7.688H112.395V14H111.543V7.688ZM111.975 6.308C111.799 6.308 111.651 6.248 111.531 6.128C111.411 6.008 111.351 5.864 111.351 5.696C111.351 5.536 111.411 5.396 111.531 5.276C111.651 5.156 111.799 5.096 111.975 5.096C112.151 5.096 112.299 5.156 112.419 5.276C112.539 5.388 112.599 5.524 112.599 5.684C112.599 5.86 112.539 6.008 112.419 6.128C112.299 6.248 112.151 6.308 111.975 6.308ZM120.262 11.108H114.982C115.03 11.764 115.282 12.296 115.738 12.704C116.194 13.104 116.77 13.304 117.466 13.304C117.858 13.304 118.218 13.236 118.546 13.1C118.874 12.956 119.158 12.748 119.398 12.476L119.878 13.028C119.598 13.364 119.246 13.62 118.822 13.796C118.406 13.972 117.946 14.06 117.442 14.06C116.794 14.06 116.218 13.924 115.714 13.652C115.218 13.372 114.83 12.988 114.55 12.5C114.27 12.012 114.13 11.46 114.13 10.844C114.13 10.228 114.262 9.676 114.526 9.188C114.798 8.7 115.166 8.32 115.63 8.048C116.102 7.776 116.63 7.64 117.214 7.64C117.798 7.64 118.322 7.776 118.786 8.048C119.25 8.32 119.614 8.7 119.878 9.188C120.142 9.668 120.274 10.22 120.274 10.844L120.262 11.108ZM117.214 8.372C116.606 8.372 116.094 8.568 115.678 8.96C115.27 9.344 115.038 9.848 114.982 10.472H119.458C119.402 9.848 119.166 9.344 118.75 8.96C118.342 8.568 117.83 8.372 117.214 8.372ZM131.155 7.688L128.767 14H127.963L125.971 8.828L123.979 14H123.175L120.799 7.688H121.615L123.595 13.052L125.623 7.688H126.355L128.371 13.052L130.375 7.688H131.155ZM134.06 14.06C133.548 14.06 133.056 13.988 132.584 13.844C132.12 13.692 131.756 13.504 131.492 13.28L131.876 12.608C132.14 12.816 132.472 12.988 132.872 13.124C133.272 13.252 133.688 13.316 134.12 13.316C134.696 13.316 135.12 13.228 135.392 13.052C135.672 12.868 135.812 12.612 135.812 12.284C135.812 12.052 135.736 11.872 135.584 11.744C135.432 11.608 135.24 11.508 135.008 11.444C134.776 11.372 134.468 11.304 134.084 11.24C133.572 11.144 133.16 11.048 132.848 10.952C132.536 10.848 132.268 10.676 132.044 10.436C131.828 10.196 131.72 9.864 131.72 9.44C131.72 8.912 131.94 8.48 132.38 8.144C132.82 7.808 133.432 7.64 134.216 7.64C134.624 7.64 135.032 7.696 135.44 7.808C135.848 7.912 136.184 8.052 136.448 8.228L136.076 8.912C135.556 8.552 134.936 8.372 134.216 8.372C133.672 8.372 133.26 8.468 132.98 8.66C132.708 8.852 132.572 9.104 132.572 9.416C132.572 9.656 132.648 9.848 132.8 9.992C132.96 10.136 133.156 10.244 133.388 10.316C133.62 10.38 133.94 10.448 134.348 10.52C134.852 10.616 135.256 10.712 135.56 10.808C135.864 10.904 136.124 11.068 136.34 11.3C136.556 11.532 136.664 11.852 136.664 12.26C136.664 12.812 136.432 13.252 135.968 13.58C135.512 13.9 134.876 14.06 134.06 14.06ZM137.531 16.328C138.003 15.52 138.351 14.656 138.575 13.736C138.799 12.808 138.911 11.8 138.911 10.712C138.911 9.624 138.799 8.62 138.575 7.7C138.351 6.772 138.003 5.904 137.531 5.096H138.347C138.795 5.816 139.139 6.66 139.379 7.628C139.627 8.588 139.751 9.616 139.751 10.712C139.751 11.808 139.631 12.836 139.391 13.796C139.151 14.756 138.803 15.6 138.347 16.328H137.531Z" fill="#696969"/>
<path d="M9.99861 9.03906C9.99861 8.87165 9.82003 8.80469 9.68611 8.78237L6.88477 8.375L5.62919 5.83594C5.57896 5.72991 5.4841 5.60714 5.35575 5.60714C5.2274 5.60714 5.13253 5.72991 5.08231 5.83594L3.82673 8.375L1.02539 8.78237C0.885882 8.80469 0.712891 8.87165 0.712891 9.03906C0.712891 9.13951 0.785435 9.23437 0.8524 9.30692L2.88365 11.2824L2.40374 14.0725C2.39816 14.1116 2.39258 14.1451 2.39258 14.1842C2.39258 14.3292 2.46512 14.4632 2.62695 14.4632C2.70508 14.4632 2.77762 14.4353 2.85017 14.3962L5.35575 13.0792L7.86133 14.3962C7.92829 14.4353 8.00642 14.4632 8.08454 14.4632C8.24637 14.4632 8.31334 14.3292 8.31334 14.1842C8.31334 14.1451 8.31334 14.1116 8.30776 14.0725L7.82785 11.2824L9.85352 9.30692C9.92606 9.23437 9.99861 9.13951 9.99861 9.03906Z" fill="#CAB877"/>
<path d="M24.9986 9.03906C24.9986 8.87165 24.82 8.80469 24.6861 8.78237L21.8848 8.375L20.6292 5.83594C20.579 5.72991 20.4841 5.60714 20.3557 5.60714C20.2274 5.60714 20.1325 5.72991 20.0823 5.83594L18.8267 8.375L16.0254 8.78237C15.8859 8.80469 15.7129 8.87165 15.7129 9.03906C15.7129 9.13951 15.7854 9.23437 15.8524 9.30692L17.8836 11.2824L17.4037 14.0725C17.3982 14.1116 17.3926 14.1451 17.3926 14.1842C17.3926 14.3292 17.4651 14.4632 17.627 14.4632C17.7051 14.4632 17.7776 14.4353 17.8502 14.3962L20.3557 13.0792L22.8613 14.3962C22.9283 14.4353 23.0064 14.4632 23.0845 14.4632C23.2464 14.4632 23.3133 14.3292 23.3133 14.1842C23.3133 14.1451 23.3133 14.1116 23.3078 14.0725L22.8278 11.2824L24.8535 9.30692C24.9261 9.23437 24.9986 9.13951 24.9986 9.03906Z" fill="#CAB877"/>
<path d="M39.9986 9.03906C39.9986 8.87165 39.82 8.80469 39.6861 8.78237L36.8848 8.375L35.6292 5.83594C35.579 5.72991 35.4841 5.60714 35.3557 5.60714C35.2274 5.60714 35.1325 5.72991 35.0823 5.83594L33.8267 8.375L31.0254 8.78237C30.8859 8.80469 30.7129 8.87165 30.7129 9.03906C30.7129 9.13951 30.7854 9.23437 30.8524 9.30692L32.8836 11.2824L32.4037 14.0725C32.3982 14.1116 32.3926 14.1451 32.3926 14.1842C32.3926 14.3292 32.4651 14.4632 32.627 14.4632C32.7051 14.4632 32.7776 14.4353 32.8502 14.3962L35.3557 13.0792L37.8613 14.3962C37.9283 14.4353 38.0064 14.4632 38.0845 14.4632C38.2464 14.4632 38.3133 14.3292 38.3133 14.1842C38.3133 14.1451 38.3133 14.1116 38.3078 14.0725L37.8278 11.2824L39.8535 9.30692C39.9261 9.23437 39.9986 9.13951 39.9986 9.03906Z" fill="#CAB877"/>
<path d="M54.9986 9.03906C54.9986 8.87165 54.82 8.80469 54.6861 8.78237L51.8848 8.375L50.6292 5.83594C50.579 5.72991 50.4841 5.60714 50.3557 5.60714C50.2274 5.60714 50.1325 5.72991 50.0823 5.83594L48.8267 8.375L46.0254 8.78237C45.8859 8.80469 45.7129 8.87165 45.7129 9.03906C45.7129 9.13951 45.7854 9.23437 45.8524 9.30692L47.8836 11.2824L47.4037 14.0725C47.3982 14.1116 47.3926 14.1451 47.3926 14.1842C47.3926 14.3292 47.4651 14.4632 47.627 14.4632C47.7051 14.4632 47.7776 14.4353 47.8502 14.3962L50.3557 13.0792L52.8613 14.3962C52.9283 14.4353 53.0064 14.4632 53.0845 14.4632C53.2464 14.4632 53.3133 14.3292 53.3133 14.1842C53.3133 14.1451 53.3133 14.1116 53.3078 14.0725L52.8278 11.2824L54.8535 9.30692C54.9261 9.23437 54.9986 9.13951 54.9986 9.03906Z" fill="#CAB877"/>
<path d="M69.9986 9.03906C69.9986 8.87165 69.82 8.80469 69.6861 8.78237L66.8848 8.375L65.6292 5.83594C65.579 5.72991 65.4841 5.60714 65.3557 5.60714C65.2274 5.60714 65.1325 5.72991 65.0823 5.83594L63.8267 8.375L61.0254 8.78237C60.8859 8.80469 60.7129 8.87165 60.7129 9.03906C60.7129 9.13951 60.7854 9.23437 60.8524 9.30692L62.8836 11.2824L62.4037 14.0725C62.3982 14.1116 62.3926 14.1451 62.3926 14.1842C62.3926 14.3292 62.4651 14.4632 62.627 14.4632C62.7051 14.4632 62.7776 14.4353 62.8502 14.3962L65.3557 13.0792L67.8613 14.3962C67.9283 14.4353 68.0064 14.4632 68.0845 14.4632C68.2464 14.4632 68.3133 14.3292 68.3133 14.1842C68.3133 14.1451 68.3133 14.1116 68.3078 14.0725L67.8278 11.2824L69.8535 9.30692C69.9261 9.23437 69.9986 9.13951 69.9986 9.03906Z" fill="#CAB877"/>
</svg>
